<svg width="24" height="24" viewBox="0 0 24 24" fill="none" xmlns="http://www.w3.org/2000/svg">
<path d="M12.0002 0.333313C9.69272 0.333313 7.43709 1.01755 5.51852 2.2995C3.59994 3.58145 2.1046 5.40353 1.22157 7.53534C0.338551 9.66714 0.107512 12.0129 0.557673 14.276C1.00783 16.5391 2.11898 18.6179 3.75059 20.2496C5.3822 21.8812 7.461 22.9923 9.72411 23.4425C11.9872 23.8926 14.333 23.6616 16.4648 22.7786C18.5966 21.8956 20.4187 20.4002 21.7006 18.4816C22.9826 16.5631 23.6668 14.3074 23.6668 12C23.6668 10.4679 23.3651 8.9508 22.7788 7.53534C22.1925 6.11987 21.3331 4.83375 20.2497 3.7504C19.1664 2.66705 17.8803 1.80769 16.4648 1.22139C15.0493 0.63508 13.5323 0.333313 12.0002 0.333313ZM15.1618 13.505C15.2712 13.6134 15.358 13.7425 15.4172 13.8846C15.4764 14.0268 15.5069 14.1793 15.5069 14.3333C15.5069 14.4873 15.4764 14.6398 15.4172 14.782C15.358 14.9242 15.2712 15.0532 15.1618 15.1616C15.0534 15.271 14.9243 15.3578 14.7822 15.417C14.64 15.4762 14.4875 15.5067 14.3335 15.5067C14.1795 15.5067 14.027 15.4762 13.8848 15.417C13.7427 15.3578 13.6136 15.271 13.5052 15.1616L12.0002 13.645L10.4952 15.1616C10.3867 15.271 10.2577 15.3578 10.1155 15.417C9.97334 15.4762 9.82085 15.5067 9.66683 15.5067C9.51282 15.5067 9.36033 15.4762 9.21816 15.417C9.07599 15.3578 8.94696 15.271 8.8385 15.1616C8.72915 15.0532 8.64236 14.9242 8.58313 14.782C8.5239 14.6398 8.4934 14.4873 8.4934 14.3333C8.4934 14.1793 8.5239 14.0268 8.58313 13.8846C8.64236 13.7425 8.72915 13.6134 8.8385 13.505L10.3552 12L8.8385 10.495C8.61881 10.2753 8.49539 9.97733 8.49539 9.66665C8.49539 9.35596 8.61881 9.058 8.8385 8.83831C9.05819 8.61862 9.35615 8.49521 9.66683 8.49521C9.97752 8.49521 10.2755 8.61862 10.4952 8.83831L12.0002 10.355L13.5052 8.83831C13.7249 8.61862 14.0228 8.49521 14.3335 8.49521C14.6442 8.49521 14.9421 8.61862 15.1618 8.83831C15.3815 9.058 15.5049 9.35596 15.5049 9.66665C15.5049 9.97733 15.3815 10.2753 15.1618 10.495L13.6452 12L15.1618 13.505Z" fill="#F95050"/>
</svg>
