<svg width="24" height="24" viewBox="0 0 24 24" fill="none" xmlns="http://www.w3.org/2000/svg">
<path d="M12.0002 0.333313C9.69272 0.333313 7.43709 1.01755 5.51852 2.2995C3.59994 3.58145 2.1046 5.40353 1.22157 7.53534C0.338551 9.66714 0.107512 12.0129 0.557673 14.276C1.00783 16.5391 2.11898 18.6179 3.75059 20.2496C5.3822 21.8812 7.461 22.9923 9.72411 23.4425C11.9872 23.8926 14.333 23.6616 16.4648 22.7786C18.5966 21.8956 20.4187 20.4002 21.7006 18.4816C22.9826 16.5631 23.6668 14.3074 23.6668 12C23.6668 10.4679 23.3651 8.9508 22.7788 7.53534C22.1925 6.11987 21.3331 4.83375 20.2497 3.7504C19.1664 2.66705 17.8803 1.80769 16.4648 1.22139C15.0493 0.63508 13.5323 0.333313 12.0002 0.333313ZM17.0168 9.21165L11.6852 16.2116C11.5765 16.3528 11.4369 16.4672 11.2771 16.5461C11.1174 16.625 10.9417 16.6662 10.7635 16.6666C10.5863 16.6676 10.4112 16.6282 10.2515 16.5514C10.0918 16.4745 9.9517 16.3624 9.84183 16.2233L6.99517 12.595C6.90094 12.4739 6.83148 12.3355 6.79075 12.1877C6.75002 12.0398 6.73881 11.8853 6.75777 11.7331C6.77673 11.5809 6.82548 11.4339 6.90124 11.3005C6.97701 11.1672 7.0783 11.05 7.19933 10.9558C7.44378 10.7655 7.7538 10.6801 8.0612 10.7184C8.21341 10.7374 8.3604 10.7861 8.49377 10.8619C8.62714 10.9377 8.74428 11.0389 8.8385 11.16L10.7402 13.5866L15.1502 7.75331C15.2436 7.63075 15.3603 7.52779 15.4936 7.45031C15.6268 7.37284 15.774 7.32237 15.9268 7.30179C16.0795 7.28121 16.2348 7.29091 16.3838 7.33035C16.5328 7.36979 16.6726 7.43819 16.7952 7.53165C16.9177 7.6251 17.0207 7.74179 17.0982 7.87504C17.1756 8.00828 17.2261 8.15548 17.2467 8.30824C17.2673 8.46099 17.2576 8.6163 17.2181 8.7653C17.1787 8.9143 17.1103 9.05408 17.0168 9.17665V9.21165Z" fill="#3BC963"/>
</svg>
